<svg width="43" height="30" viewBox="0 0 43 30" fill="none" xmlns="http://www.w3.org/2000/svg">
<g id="import_contacts_24px">
<path id="icon/communication/import_contacts_24px" fill-rule="evenodd" clip-rule="evenodd" d="M31.7625 0C34.0147 0 36.3633 0.264706 38.5 0.882353C39.9437 1.32353 41.195 1.85294 42.35 2.64706V28.4118C42.35 28.8529 41.8687 29.2941 41.3875 29.2941C41.195 29.2941 41.0987 29.2941 40.9062 29.2059C38.2113 27.8824 34.9387 27.3529 31.7625 27.3529C28.49 27.3529 23.7738 28.5 21.175 30C18.3837 28.0588 14.3412 27.3529 10.5875 27.3529C7.79625 27.3529 4.0425 28.1471 1.44375 29.2941C1.3475 29.2941 1.27531 29.3162 1.20312 29.3382C1.13094 29.3603 1.05875 29.3824 0.9625 29.3824C0.48125 29.3824 0 28.9412 0 28.5V2.64706C2.79125 0.705882 6.83375 0 10.5875 0C14.3412 0 18.3837 0.705882 21.175 2.64706C23.9662 0.705882 28.0087 0 31.7625 0ZM31.7628 23.8235C34.0728 23.8235 36.3828 24.0882 38.5003 24.7059V4.41176C36.3828 3.79412 34.0728 3.52941 31.7628 3.52941C28.4903 3.52941 23.774 4.67647 21.1753 6.17647V26.4706C23.774 24.9706 28.4903 23.8235 31.7628 23.8235Z" fill="#E2725B"/>
</g>
</svg>
