<svg width="87" height="84" viewBox="0 0 87 84" fill="none" xmlns="http://www.w3.org/2000/svg">
<path d="M5.43945 80.7345H81.5617C84.5605 80.7345 86.9992 78.3799 86.9992 75.4845V74.172C86.9992 73.4462 86.3916 72.8595 85.6399 72.8595H84.2805V66.3101C84.2791 46.0779 68.3908 29.3698 48.03 27.1884C48.601 26.3576 48.9367 25.3641 48.9367 24.2944C48.9367 21.399 46.498 19.0444 43.4992 19.0444C40.5005 19.0444 38.0617 21.399 38.0617 24.2944C38.0617 25.3641 38.3975 26.3576 38.9698 27.1884C18.6104 29.3737 2.72478 46.0793 2.72342 66.3088V72.8582H1.36405H1.36269H1.36133C0.609594 72.8582 0.00195312 73.4449 0.00195312 74.1707V75.4832C0.00195312 78.3799 2.44067 80.7345 5.43945 80.7345ZM43.4992 21.6694C44.9986 21.6694 46.218 22.8467 46.218 24.2944C46.218 25.7421 44.9986 26.9194 43.4992 26.9194C41.9998 26.9194 40.7805 25.7421 40.7805 24.2944C40.7805 22.8467 41.9998 21.6694 43.4992 21.6694ZM5.44217 66.3114C5.44217 46.0491 22.5159 29.5641 43.502 29.5641C64.488 29.5641 81.5617 46.0491 81.5617 66.3114V72.8582H5.44217V66.3114ZM84.2805 75.4845C84.2805 76.9322 83.0611 78.1095 81.5617 78.1095H5.43945C3.94006 78.1095 2.7207 76.9322 2.7207 75.4845H84.2805Z" fill="black"/>
<path d="M43.4814 32.1694C42.7297 32.1694 42.1221 32.7561 42.1221 33.4819C42.1221 34.2077 42.7297 34.7944 43.4814 34.7944C61.4796 34.7944 76.1228 48.9313 76.1228 66.3101C76.1228 67.0359 76.7304 67.6226 77.4821 67.6226C78.2339 67.6226 78.8415 67.0359 78.8415 66.3101C78.8415 47.4849 62.979 32.1694 43.4814 32.1694Z" fill="black"/>
<path d="M23.4974 23.9216C23.7639 24.188 24.12 24.3232 24.4762 24.3232C24.816 24.3232 25.1572 24.2012 25.4196 23.9557C27.1242 22.3663 29.3509 18.0364 25.5745 13.0239C22.3352 8.72417 25.0892 5.84324 25.425 5.51905C25.9606 5.01374 25.9728 4.18686 25.4536 3.66842C24.9329 3.14867 24.0697 3.13161 23.5314 3.63561C21.8268 5.22505 19.6001 9.55499 23.3764 14.5674C26.6226 18.8764 23.8509 21.7586 23.5314 22.067C22.9917 22.5684 22.9768 23.3992 23.4974 23.9216Z" fill="black"/>
<path d="M61.5121 23.9216C61.7785 24.188 62.1347 24.3232 62.4908 24.3232C62.8307 24.3232 63.1719 24.2012 63.4342 23.9557C65.1389 22.3663 67.3655 18.0364 63.5892 13.0239C60.3498 8.72417 63.1039 5.84324 63.4397 5.51905C63.9753 5.01374 63.9875 4.18686 63.4682 3.66842C62.9476 3.14867 62.0844 3.13161 61.5461 3.63561C59.8414 5.22505 57.6147 9.55499 61.3911 14.5674C64.6373 18.8764 61.8655 21.7586 61.5461 22.067C61.0064 22.5684 60.9914 23.3992 61.5121 23.9216Z" fill="black"/>
<path d="M44.4799 3.66714C43.9593 3.14739 43.0961 3.13033 42.5578 3.63433C40.8531 5.22377 38.6265 9.5537 42.4028 14.5661C42.6679 14.9205 43.0825 15.1069 43.5039 15.1069C43.7812 15.1069 44.0599 15.0242 44.3019 14.8562C44.9095 14.431 45.0441 13.6093 44.6023 13.024C41.3615 8.72158 44.1211 5.83933 44.4541 5.51777C44.9856 5.01245 44.9992 4.18558 44.4799 3.66714Z" fill="black"/>
</svg>
