<svg width="81" height="79" viewBox="0 0 81 79" fill="none" xmlns="http://www.w3.org/2000/svg">
<g clip-path="url(#clip0)">
<path d="M40.5004 11.8834C23.4689 11.8834 9.6123 25.3981 9.6123 42.0088C9.6123 58.6207 23.4691 72.1352 40.5004 72.1352C57.5328 72.1352 71.3885 58.6205 71.3885 42.0088C71.3885 25.3981 57.5318 11.8834 40.5004 11.8834ZM40.5004 66.6754C26.556 66.6754 15.2113 55.6101 15.2113 42.0099C15.2113 28.4098 26.5558 17.3452 40.5004 17.3452C54.445 17.3452 65.7895 28.4098 65.7895 42.0099C65.7895 55.6108 54.4448 66.6754 40.5004 66.6754Z" fill="black"/>
<path d="M49.0849 41.0988H41.6196V30.5412C41.6196 29.0331 40.3663 27.8108 38.8201 27.8108C37.2738 27.8108 36.0205 29.0331 36.0205 30.5412V43.8292C36.0205 45.3373 37.2738 46.5596 38.8201 46.5596H49.085C50.6313 46.5596 51.8846 45.3373 51.8846 43.8292C51.8844 42.3211 50.6312 41.0988 49.0849 41.0988Z" fill="black"/>
<path d="M24.6425 61.5505C23.4929 60.5411 21.7226 60.633 20.6887 61.7534L12.2901 70.8547C11.2551 71.975 11.3494 73.7016 12.4981 74.7101C13.0328 75.1807 13.7028 75.4118 14.3701 75.4118C15.1363 75.4118 15.8996 75.1069 16.4521 74.5072L24.8507 65.4059C25.8855 64.2854 25.7912 62.5588 24.6425 61.5505Z" fill="black"/>
<path d="M68.711 70.8556L60.3124 61.7543C59.2803 60.633 57.5092 60.542 56.3594 61.5514C55.2097 62.5599 55.1173 64.2863 56.1513 65.4068L64.55 74.5081C65.1015 75.1069 65.8648 75.4118 66.631 75.4118C67.2973 75.4118 67.9673 75.1807 68.503 74.711C69.6526 73.7025 69.745 71.976 68.711 70.8556Z" fill="black"/>
<path d="M24.1677 7.56768C18.605 2.25526 9.6382 2.26343 4.18006 7.58774C1.46436 10.2353 -0.0194251 13.7384 0.000192056 17.4517C0.0207584 21.1204 1.51198 24.5554 4.20047 27.1238C4.74548 27.6435 5.45185 27.9028 6.15917 27.9028C6.87583 27.9028 7.59249 27.6353 8.13844 27.1037L24.189 11.4495C24.7173 10.9335 25.0122 10.2335 25.0084 9.50456C25.0047 8.77535 24.7022 8.07824 24.1677 7.56768ZM6.46624 21.0112C5.90542 19.9091 5.60578 18.6895 5.5993 17.4226C5.58711 15.18 6.48855 13.0575 8.13844 11.4484C9.78454 9.84386 11.9608 9.04198 14.149 9.04198C15.4284 9.04198 16.7125 9.31585 17.8957 9.86376L6.46624 21.0112Z" fill="black"/>
<path d="M76.8197 7.58672C71.3606 2.26334 62.3937 2.25424 56.8311 7.56666C56.2973 8.07722 55.9941 8.77449 55.9903 9.50338C55.9865 10.2324 56.2823 10.9332 56.8106 11.4483L72.8611 27.1026C73.4071 27.636 74.1238 27.9026 74.8404 27.9026C75.5477 27.9026 76.2551 27.6432 76.7991 27.1217C79.4886 24.5542 80.9798 21.1194 80.9994 17.4506C81.019 13.7384 79.5343 10.2352 76.8197 7.58672ZM74.5335 21.0111L63.104 9.86382C66.3122 8.37841 70.253 8.90549 72.8613 11.4492C74.5112 13.0584 75.4126 15.1798 75.4004 17.4234C75.3938 18.6894 75.0943 19.9099 74.5335 21.0111Z" fill="black"/>
</g>
<defs>
<clipPath id="clip0">
<rect width="81" height="79" fill="white"/>
</clipPath>
</defs>
</svg>
