<?xml version="1.0" encoding="UTF-8" standalone="no"?>
<svg
   xmlns:dc="http://purl.org/dc/elements/1.1/"
   xmlns:cc="http://creativecommons.org/ns#"
   xmlns:rdf="http://www.w3.org/1999/02/22-rdf-syntax-ns#"
   xmlns:svg="http://www.w3.org/2000/svg"
   xmlns="http://www.w3.org/2000/svg"
   xmlns:sodipodi="http://sodipodi.sourceforge.net/DTD/sodipodi-0.dtd"
   xmlns:inkscape="http://www.inkscape.org/namespaces/inkscape"
   sodipodi:docname="logo.svg"
   inkscape:version="1.0 (4035a4fb49, 2020-05-01)"
   id="svg8"
   version="1.1"
   viewBox="0 0 130.20013 88.365273"
   height="88.365273mm"
   width="130.20013mm">
  <defs
     id="defs2">
	
	
</defs>
  <sodipodi:namedview
     inkscape:window-maximized="0"
     inkscape:window-y="0"
     inkscape:window-x="182"
     inkscape:window-height="1040"
     inkscape:window-width="1274"
     showgrid="false"
     inkscape:document-rotation="0"
     inkscape:current-layer="layer1"
     inkscape:document-units="mm"
     inkscape:cy="358.74838"
     inkscape:cx="99.521632"
     inkscape:zoom="0.98994949"
     inkscape:pageshadow="2"
     inkscape:pageopacity="0.0"
     borderopacity="1.0"
     bordercolor="#666666"
     pagecolor="#ffffff"
     id="base" />
  <metadata
     id="metadata5">
    <rdf:RDF>
      <cc:Work
         rdf:about="">
        <dc:format>image/svg+xml</dc:format>
        <dc:type
           rdf:resource="http://purl.org/dc/dcmitype/StillImage" />
        <dc:title></dc:title>
      </cc:Work>
    </rdf:RDF>
  </metadata>
  <g
     transform="translate(-58.305224,-73.657285)"
     id="layer1"
     inkscape:groupmode="layer"
     inkscape:label="Layer 1">
    <path
       style="stroke-width:0.264583"
       id="path16"
       d="m 178.12284,107.45728 c -5.16361,0 -12.34334,2.98185 -23.94108,2.98185 -3.95844,0 -7.96634,0.57573 -8.37063,-1.29725 -4.00023,-18.548086 -21.89956,-35.484595 -43.32287,-35.484595 -24.401199,0 -44.183036,19.781309 -44.183036,44.182505 0,24.40173 19.781837,44.18277 44.183036,44.18277 21.41987,0 37.77588,-14.80132 43.32023,-35.47401 0.49609,-1.85049 4.41431,-1.29804 8.373,-1.29804 11.59775,0 18.77774,2.98185 23.94109,2.98185 v -0.01 c 5.73352,0 10.38278,-4.64926 10.38278,-10.38251 0,-5.73326 -4.649,-10.38278 -10.38252,-10.38278 z m -75.63458,35.86109 C 78.040494,128.73851 78.09738,113.12703 78.09738,113.12703 c 0,-6.88869 5.584031,-12.47298 12.473781,-12.47298 5.603875,0 10.343089,3.69517 11.917099,8.78125 1.57321,-5.08635 6.31243,-8.78125 11.9163,-8.78125 6.88896,0 12.47299,5.58403 12.47299,12.47298 -1.08903,15.46358 -24.38929,30.19134 -24.38929,30.19134 z m 75.63458,-21.20794 c -2.35849,0 -4.27064,-1.91241 -4.27064,-4.2709 0,-2.35823 1.91215,-4.27064 4.27064,-4.27064 2.3585,0 4.27064,1.91241 4.27064,4.27064 0,2.35876 -1.91214,4.2709 -4.27064,4.2709 z"
       fill="#e2725c" />
  </g>
</svg>
