<svg width="30" height="30" viewBox="0 0 30 30" fill="none" xmlns="http://www.w3.org/2000/svg">
<g id="person_outline_24px">
<path id="icon/social/person_outline_24px" fill-rule="evenodd" clip-rule="evenodd" d="M15 0C10.8562 0 7.5 3.35625 7.5 7.5C7.5 11.6438 10.8562 15 15 15C19.1437 15 22.5 11.6438 22.5 7.5C22.5 3.35625 19.1437 0 15 0ZM18.9375 7.5C18.9375 5.325 17.175 3.5625 15 3.5625C12.825 3.5625 11.0625 5.325 11.0625 7.5C11.0625 9.675 12.825 11.4375 15 11.4375C17.175 11.4375 18.9375 9.675 18.9375 7.5ZM26.4375 24.375C26.4375 23.175 20.5688 20.4375 15 20.4375C9.43125 20.4375 3.5625 23.175 3.5625 24.375V26.4375H26.4375V24.375ZM0 24.375C0 19.3875 9.99375 16.875 15 16.875C20.0063 16.875 30 19.3875 30 24.375V30H0V24.375Z" fill="#E2725B"/>
</g>
</svg>
